<svg width="306" height="291" viewBox="0 0 306 291" xmlns="http://www.w3.org/2000/svg">
    <path d="M260.378 144.819a113.692 113.692 0 0 0 25.718-17.572c-8.197-.637-16.393-7.797-26.305-.48a35.717 35.717 0 0 1-3.49 2.173 59.615 59.615 0 0 1-57.224 0 54.032 54.032 0 0 1-20.698-20.765 58.448 58.448 0 0 1-7.325-22.744h132.71l-.25-2.746c.061-1.408.125-3.132.125-4.024.281-19.279-6.946-37.9-20.133-51.874-14.247-15.802-34.61-24.583-55.793-24.06-21.243-.552-41.667 8.27-55.917 24.152a73.527 73.527 0 0 0-19.074 38.653 73.58 73.58 0 0 0-19.198-39.454c-14.24-15.793-34.59-24.571-55.762-24.053-21.247-.56-41.675 8.263-55.922 24.152C8.72 40.15 1.522 58.726 1.775 77.959c-.153 19.688 7.498 38.624 21.258 52.606a70.307 70.307 0 0 0 19.603 14.696 74.347 74.347 0 0 0-20.758 16.074C-5.373 190.883-4.874 236.76 23.014 265.7c14.24 15.036 34.178 23.225 54.793 22.504 20.568.707 40.453-7.483 54.638-22.504 10.629-10.846 17.696-24.718 20.247-39.74 2.443 15.263 9.545 29.382 20.319 40.392 14.227 15.035 34.157 23.225 54.763 22.504 20.567.708 40.453-7.483 54.638-22.504 27.916-28.984 28.415-74.917 1.136-104.51a74.717 74.717 0 0 0-23.17-17.023zM187.92 37.34c10.529-10.891 24.978-17.037 40.069-17.043 15.09-.006 29.545 6.129 40.082 17.013a63.931 63.931 0 0 1 7.629 9.34 53.004 53.004 0 0 1 8.465 22.055H171.92A56.51 56.51 0 0 1 187.92 37.34zM29.033 107.363a57.387 57.387 0 0 1-7.643-28.97c-.246-15.44 5.818-30.305 16.771-41.109 10.496-11.03 25.06-17.18 40.225-16.989 15.13-.158 29.652 5.989 40.13 16.985 11.022 10.766 17.132 25.646 16.882 41.11a57.702 57.702 0 0 1-7.644 28.97 54.006 54.006 0 0 1-20.69 20.745 57.618 57.618 0 0 1-28.647 7.297 57.618 57.618 0 0 1-28.648-7.297 53.959 53.959 0 0 1-20.736-20.742zm98.687 135.211a53.788 53.788 0 0 1-20.697 20.727 57.618 57.618 0 0 1-28.648 7.296 57.618 57.618 0 0 1-28.636-7.296 53.872 53.872 0 0 1-20.706-20.727 57.387 57.387 0 0 1-7.643-28.969c-.247-15.443 5.817-30.309 16.771-41.114 10.497-11.027 25.061-17.177 40.225-16.985 15.13-.158 29.652 5.989 40.13 16.985 11.028 10.763 17.139 25.645 16.882 41.11a57.329 57.329 0 0 1-7.678 28.973zm6.183-81.114a73.91 73.91 0 0 0-20.789-16.042 70.964 70.964 0 0 0 19.66-14.758c10.7-10.92 17.808-24.891 20.361-40.019 2.452 15.374 9.598 29.595 20.444 40.687a70.902 70.902 0 0 0 19.72 14.792 74.22 74.22 0 0 0-20.852 16.172 74.02 74.02 0 0 0-19.19 38.905 74.78 74.78 0 0 0-19.354-39.737zm143.508 82.007a53.663 53.663 0 0 1-20.72 20.753 59.859 59.859 0 0 1-57.292 0 53.876 53.876 0 0 1-20.724-20.753 57.414 57.414 0 0 1-7.644-28.989c-.249-15.439 5.823-30.3 16.787-41.09 10.585-10.87 25.064-16.993 40.177-16.993 15.114 0 29.593 6.124 40.178 16.993 11.022 10.758 17.132 25.632 16.881 41.09a57.019 57.019 0 0 1-7.643 28.989z" fill-rule="nonzero" stroke="#FFF" stroke-width="3" fill="none"/>
</svg>
