<svg xmlns="http://www.w3.org/2000/svg" data-name="Layer 1" viewBox="0 0 160.37 43" fill="#fff" class="svg-logo-full header__img"><defs><mask id="mask" width="45" height="43" x="0" y="0" maskUnits="userSpaceOnUse"><g id="mask-50qxos2hna-2"><path id="path-50qxos2hna-1" d="M0 0h45v43H0V0z" class="cls-3"></path></g></mask></defs><g id="Desktop-Designs"><g id="Stap-2---datum_-tijden-_desktop_" data-name="Stap-2---datum,-tijden-(desktop)"><g id="Group-6"><g id="Violet88"><path id="Path" d="m58.67 15.2 6.7 16.8h2.93l6.79-16.8h-2.95L66.9 28.86 61.72 15.2h-3.05z" class="cls-2"></path><path id="Shape" d="M79.11 13.93c-.91 0-1.61.7-1.61 1.66s.7 1.63 1.61 1.63 1.61-.7 1.61-1.63-.7-1.66-1.61-1.66Zm-1.37 5.3V32h2.74V19.23h-2.74Z" class="cls-2"></path><path id="Shape-2" d="M90.57 19.14c-3.96 0-6.67 2.62-6.67 6.46s2.71 6.5 6.67 6.5 6.65-2.64 6.65-6.5-2.71-6.46-6.65-6.46Zm0 2.35c2.28 0 3.89 1.7 3.89 4.15s-1.61 4.15-3.89 4.15-3.91-1.68-3.91-4.15 1.61-4.15 3.91-4.15Z" class="cls-2" data-name="Shape"></path><path id="Path-2" d="M100.77 14.19V32h2.76V14.19h-2.76z" class="cls-2" data-name="Path"></path><path id="Shape-3" d="M113.53 19.14c-3.79.02-6.46 2.64-6.46 6.5s2.59 6.46 6.53 6.46c2.21 0 4.03-.79 5.28-2.16l-1.46-1.56c-.94.96-2.21 1.49-3.6 1.49-2.02 0-3.53-1.22-3.96-3.19h9.65c.34-4.61-1.49-7.54-5.98-7.54Zm-3.72 5.52c.29-2.04 1.73-3.31 3.74-3.31s3.46 1.25 3.55 3.31h-7.3Z" class="cls-2" data-name="Shape"></path><path id="Path-3" d="M129.45 29.07c-.74.36-1.34.55-1.92.55-.86 0-1.37-.41-1.37-1.73v-6.12h3.77v-2.06h-3.77v-3.5h-2.74v3.5h-1.8v2.06h1.8v6.62c0 2.62 1.66 3.72 3.58 3.72 1.08 0 2.14-.34 3.14-.94l-.7-2.11Z" class="cls-2" data-name="Path"></path><path id="Shape-4" d="M138.59 15.06c-3.41 0-5.57 1.63-5.57 4.25 0 1.63.98 2.98 2.59 3.7-2.09.7-3.41 2.28-3.41 4.32 0 2.98 2.47 4.8 6.41 4.8s6.41-1.85 6.41-4.85c0-2.02-1.27-3.58-3.29-4.27 1.51-.67 2.45-1.97 2.45-3.58 0-2.71-2.14-4.37-5.59-4.37Zm.02 2.04c2.02 0 3.17.91 3.17 2.47s-1.15 2.47-3.17 2.47-3.19-.91-3.19-2.47 1.18-2.47 3.19-2.47Zm-.02 7.15c2.38 0 3.77 1.03 3.77 2.78s-1.39 2.86-3.74 2.86-3.74-1.03-3.74-2.88c0-1.75 1.37-2.76 3.72-2.76Z" class="cls-2" data-name="Shape"></path><path id="Shape-5" d="M153.94 15.06c-3.41 0-5.57 1.63-5.57 4.25 0 1.63.98 2.98 2.59 3.7-2.09.7-3.41 2.28-3.41 4.32 0 2.98 2.47 4.8 6.41 4.8s6.41-1.85 6.41-4.85c0-2.02-1.27-3.58-3.29-4.27 1.51-.67 2.45-1.97 2.45-3.58 0-2.71-2.14-4.37-5.59-4.37Zm.02 2.04c2.02 0 3.17.91 3.17 2.47s-1.15 2.47-3.17 2.47-3.19-.91-3.19-2.47 1.18-2.47 3.19-2.47Zm-.02 7.15c2.38 0 3.77 1.03 3.77 2.78s-1.39 2.86-3.74 2.86-3.74-1.03-3.74-2.88c0-1.75 1.37-2.76 3.72-2.76Z" class="cls-2" data-name="Shape"></path></g><g id="Group-3"><path id="Fill-1" d="M41.07 36.19c-.76 1.35-1.79 2.38-3.09 3.11-1.3.73-2.72 1.09-4.27 1.09s-2.97-.36-4.27-1.09c-1.3-.73-2.32-1.77-3.09-3.11a8.66 8.66 0 0 1-1.14-4.34c0-2.41.84-4.46 2.5-6.16 1.67-1.7 3.67-2.55 5.99-2.55s4.31.85 5.98 2.55c1.68 1.7 2.52 3.75 2.52 6.16 0 1.55-.38 3.01-1.14 4.34m-21.38-12.3c-.93-1.02-1.96-1.82-3.1-2.41 1.08-.55 2.06-1.28 2.93-2.21 1.66-1.76 2.67-3.76 3.03-6 .35 2.27 1.36 4.3 3.05 6.1.87.93 1.85 1.67 2.94 2.22-1.14.59-2.18 1.4-3.11 2.42-1.56 1.71-2.51 3.65-2.86 5.83-.35-2.24-1.31-4.23-2.88-5.96m-.92 12.16c-.76 1.35-1.79 2.38-3.08 3.11-1.3.73-2.72 1.09-4.27 1.09s-2.97-.36-4.27-1.09c-1.3-.73-2.33-1.77-3.09-3.11a8.66 8.66 0 0 1-1.14-4.34c0-2.41.84-4.46 2.5-6.16 1.67-1.7 3.67-2.55 5.99-2.55s4.31.85 5.98 2.55c1.68 1.7 2.52 3.75 2.52 6.16 0 1.55-.38 3-1.14 4.34M4.06 15.79a8.66 8.66 0 0 1-1.14-4.34c0-2.41.84-4.46 2.5-6.16 1.67-1.7 3.67-2.55 5.99-2.55s4.31.85 5.98 2.55c1.68 1.7 2.52 3.75 2.52 6.16 0 1.55-.38 3-1.14 4.34-.76 1.34-1.79 2.38-3.08 3.11-1.3.73-2.72 1.09-4.27 1.09s-2.97-.36-4.27-1.09c-1.3-.73-2.33-1.77-3.09-3.11m23.68-10.5c1.67-1.7 3.66-2.55 5.98-2.55s4.3.85 5.96 2.55c.42.42.81.91 1.14 1.4.67.98 1.08 2.12 1.26 3.31H25.35c.27-1.77 1.07-3.36 2.38-4.7m10.8 16.11c1.49-.75 2.86-1.72 3.83-2.63-1.22-.1-2.44-1.17-3.92-.07-.17.11-.34.23-.52.33-1.3.73-2.72 1.1-4.26 1.1s-2.97-.36-4.26-1.1c-1.3-.73-2.32-1.77-3.08-3.11-.6-1.07-.97-2.22-1.09-3.41h19.78l-.04-.41c0-.21.02-.47.02-.6 0-3-1-5.59-3-7.78C39.78 1.31 37.01.11 33.67.11s-6.13 1.21-8.33 3.62c-1.55 1.7-2.49 3.62-2.84 5.79-.33-2.22-1.29-4.19-2.86-5.91C17.43 1.21 14.66 0 11.32 0S5.19 1.21 2.99 3.62C1 5.81 0 8.4 0 11.38s1.05 5.64 3.17 7.89c.87.93 1.85 1.66 2.92 2.2-1.13.59-2.16 1.39-3.09 2.41-2 2.19-3 4.77-3 7.76s1.05 5.64 3.17 7.89c2.11 2.25 4.83 3.38 8.16 3.38s6.03-1.13 8.14-3.38c1.65-1.75 2.65-3.74 3.01-5.96.35 2.26 1.36 4.28 3.03 6.06 2.11 2.25 4.83 3.38 8.16 3.38s6.03-1.13 8.14-3.38c2.11-2.25 3.17-4.88 3.17-7.89s-1-5.59-3-7.78a11.116 11.116 0 0 0-3.45-2.56"></path></g></g></g></g></svg>
